<?xml version="1.0" standalone="no"?> <!DOCTYPE svg PUBLIC "-//W3C//DTD SVG 1.0//EN" "http://www.w3.org/TR/2001/REC-SVG-20010904/DTD/svg10.dtd" > <svg xmlns="http://www.w3.org/2000/svg" width="100%" height="100%">
<defs >
<font horiz-adv-x="513" ><font-face
    font-family="Causten-Light"
    units-per-em="1000"
    panose-1="0 0 4 0 0 0 0 0 0 0"
    ascent="776"
    descent="-224"
    alphabetic="0" />
<missing-glyph horiz-adv-x="475" d="M88 -200V750H390V-200H88ZM316 -5V102H159V-5H316ZM159 -27V-58H225L159 -103V-134H316V-103H219L286 -58H316V-27H159ZM316 159V266H221V213H254V235H285V190H190V266H159V159H316ZM159 564V465H316V497H254V564H159ZM316
589V620H254V655H316V686H160V655H221V620H159V589H316ZM159 373V342H254V408H316V439H159V408H221V373H159ZM159 320V287H316V382H285V320H159ZM190 71H285V26H190V71ZM190 532H221V497H190V532Z" />
<glyph unicode=" " glyph-name="space" horiz-adv-x="200" />
<glyph unicode="!" glyph-name="exclam" horiz-adv-x="181" d="M41 650H100L96 146H45L41 650ZM35 34Q35 49 46 59Q56 69 71 69T96 59T106 34T96 9T71 -2T46 8T35 34Z" />
<glyph unicode="&quot;" glyph-name="quotedbl" horiz-adv-x="281" d="M246 650L235 535H190L181 650H246ZM100 650L90 535H45L35 650H100Z" />
<glyph unicode="#" glyph-name="numbersign" horiz-adv-x="703" d="M146 222L192 431H73V482H203L239 647H295L259 482H496L532 647H588L552 482H648V431H541L495 222H610V171H484L446 -3H390L428 171H191L153 -3H97L135 171H35V222H146ZM202 222H439L485 431H248L202
222Z" />
<glyph unicode="$" glyph-name="dollar" horiz-adv-x="622" d="M55 153L104 181Q122 130 178 98T312 65Q394 65 437 94T481 178Q481 192 477 204T468 226T453 245T435 261T413 273T390 283T365 292T342 298T320 304T300 309Q208 331 172 350Q86 394 86 478Q86
544 140 585T283 632V692H338V632Q415 626 471 593T545 511L497 485Q483 525 431 552T311 580Q236 580 193 552T150 481Q150 460 159 443T180 416T214 395T250 380T292 369T327 359Q417 335 453 315Q544 267 544 180Q544 105 490 61T338 11V-49H283V11Q197 16 137
53T55 153Z" />
<glyph unicode="%" glyph-name="percent" horiz-adv-x="810" d="M452 142Q452 206 492 246T594 287Q655 287 695 247T735 142Q735 79 695 39T594 -2Q533 -2 493 38T452 142ZM96 612Q136 652 197 652T298 612T338 507Q338 444 298 404T197 363Q136 363 96 403T55
507Q55 571 96 612ZM126 434Q154 405 197 405T268 433T296 507T268 581T197 610T126 581T97 507T126 434ZM494 142Q494 97 523 69Q551 40 594 40T665 68T693 142T665 216T594 245T523 216T494 142ZM195 0L546 650H595L244 0H195Z" />
<glyph unicode="&amp;" glyph-name="ampersand" horiz-adv-x="623" d="M88 273Q121 318 201 371L177 401Q118 476 118 532Q118 585 158 622T261 660T364 623T404 532Q404 500 392 473T354 422T312 388T266 358L439 136Q470 191 470 264V279H516V263Q516 168 469
97L548 -2H490L440 61Q369 -10 269 -10T112 39T55 170Q55 227 88 273ZM152 74Q195 36 270 36Q355 36 411 98L229 334Q159 287 134 250T109 170Q109 111 152 74ZM176 483Q187 461 213 427Q228 409 238 394Q265 410 279 420T314 448T346 486T356 530Q356 568 329
593T261 618Q220 618 193 593T165 530Q165 505 176 483Z" />
<glyph unicode="&apos;" glyph-name="quotesingle" horiz-adv-x="135" d="M35 650H100L84 535H39L35 650Z" />
<glyph unicode="(" glyph-name="parenleft" horiz-adv-x="239" d="M44 462Q65 603 123 692H183Q122 609 106 502T89 323Q89 251 106 143T184 -48H123Q65 40 50 145T34 321Q34 392 44 462Z" />
<glyph unicode=")" glyph-name="parenright" horiz-adv-x="249" d="M129 178Q140 250 140 322Q140 394 124 501T46 692H106Q194 555 194 321T106 -48H45Q106 34 129 178Z" />
<glyph unicode="*" glyph-name="asterisk" horiz-adv-x="389" d="M163 491L51 567L71 597L176 526V650H214V525L320 595L339 565L227 491L339 415L319 384L214 456V331H176V457L70 386L50 416L163 491Z" />
<glyph unicode="+" glyph-name="plus" horiz-adv-x="504" d="M55 346H218V509H267V346H429V297H267V134H218V297H55V346Z" />
<glyph unicode="," glyph-name="comma" horiz-adv-x="163" d="M63 53H128L80 -78H35L63 53Z" />
<glyph unicode="-" glyph-name="hyphen" horiz-adv-x="408" d="M55 327H333V273H55V327Z" />
<glyph unicode="." glyph-name="period" horiz-adv-x="141" d="M45 59Q55 69 71 69Q86 69 96 59T106 34Q106 18 96 8T71 -2Q55 -2 45 8T35 34Q35 49 45 59Z" />
<glyph unicode="/" glyph-name="slash" horiz-adv-x="309" d="M35 -47L247 692H304L92 -47H35Z" />
<glyph unicode="0" glyph-name="zero" horiz-adv-x="623" d="M116 566Q186 658 307 658T498 566T568 325T498 85Q428 -8 307 -8T116 84T45 325T116 566ZM158 125Q212 49 307 49Q401 49 455 124T509 325T455 525T307 600Q212 600 158 525T103 325T158 125Z" />
<glyph unicode="1" glyph-name="one" horiz-adv-x="301" d="M226 650V0H169V596H18V650H226Z" />
<glyph unicode="2" glyph-name="two" horiz-adv-x="521" d="M35 529Q51 583 111 621T253 659Q354 659 414 611T475 477Q475 365 317 223Q314 220 271 182L127 54H474V0H37V50L211 203Q313 293 349 335Q416 413 416 475Q416 535 373 569T253 603Q193 603 147 576T88
507L35 529Z" />
<glyph unicode="3" glyph-name="three" horiz-adv-x="538" d="M35 87L75 124Q100 90 146 70T246 49Q322 49 371 91T421 206Q421 280 372 322T246 364Q181 364 132 344V391L381 596H82V650H465V599L242 413H249Q343 413 410 360T478 206Q478 107 411 50T246 -8Q181
-8 123 18T35 87Z" />
<glyph unicode="4" glyph-name="four" horiz-adv-x="562" d="M35 187L383 650H440V190H517V144H440V0H383V144H35V187ZM96 190H383V571L96 190Z" />
<glyph unicode="5" glyph-name="five" horiz-adv-x="537" d="M35 86L77 123Q106 87 149 68T238 48Q241 48 243 48Q325 49 372 93T419 208Q419 277 370 321T242 365Q155 365 105 334L84 377L126 650H450V596H172L143 401Q194 415 243 415Q354 415 415 356T477 206Q477
108 414 50T246 -8Q180 -8 124 17T35 86Z" />
<glyph unicode="6" glyph-name="six" horiz-adv-x="549" d="M92 364L286 650H350L207 439Q237 447 267 447Q363 447 426 383T489 220T426 57T267 -8Q172 -8 109 56T45 220Q45 304 92 364ZM100 220Q100 144 148 96Q195 47 267 47T386 95T433 220Q433 296 386 344T267
392T148 344T100 220Z" />
<glyph unicode="7" glyph-name="seven" horiz-adv-x="459" d="M73 0L348 596H28V650H414V607L134 0H73Z" />
<glyph unicode="8" glyph-name="eight" horiz-adv-x="551" d="M45 177Q45 229 75 272T161 337Q109 358 83 398T56 489Q56 558 110 608T269 658T426 608T480 489Q480 379 377 337Q432 315 461 272T491 177Q491 93 434 42T269 -9T103 42T45 177ZM101 179Q101 117
145 79Q188 41 269 41T392 79T435 179Q435 237 392 276T269 315T145 276T101 179ZM110 486Q110 430 149 395T269 360T387 395T426 486Q426 538 387 575T269 612T151 575T110 486Z" />
<glyph unicode="9" glyph-name="nine" horiz-adv-x="549" d="M108 594Q171 658 266 658Q362 658 425 594T489 430Q489 357 443 288L252 0H187L327 211Q295 203 266 203Q171 203 108 267T45 430T108 594ZM100 430Q100 354 147 306T266 258Q339 258 386 306T433
430Q433 507 386 555T266 603Q194 603 147 555T100 430Z" />
<glyph unicode=":" glyph-name="colon" horiz-adv-x="146" d="M45 350Q55 360 71 360Q86 360 96 350T106 324Q106 309 96 299T71 289Q55 289 45 299T35 324Q35 340 45 350ZM45 59Q55 69 71 69Q86 69 96 59T106 34Q106 18 96 8T71 -2Q55 -2 45 8T35 34Q35 49 45 59Z" />
<glyph unicode=";" glyph-name="semicolon" horiz-adv-x="172" d="M35 -78L67 53H132L80 -78H35ZM67 350Q77 360 91 360Q106 360 116 350T127 324Q127 310 117 300T91 289Q77 289 67 299T56 324Q56 339 67 350Z" />
<glyph unicode="&lt;" glyph-name="less" horiz-adv-x="460" d="M385 468V421L116 322L385 222V175L55 297V346L385 468Z" />
<glyph unicode="=" glyph-name="equal" horiz-adv-x="505" d="M55 443H430V396H55V443ZM430 247V201H55V247H430Z" />
<glyph unicode="&gt;" glyph-name="greater" horiz-adv-x="460" d="M324 322L55 421V468L385 346V297L55 175V222L324 322Z" />
<glyph unicode="?" glyph-name="question" horiz-adv-x="488" d="M18 534Q36 589 93 625T219 661Q308 661 365 615T423 486Q423 454 417 429T390 377T360 341T317 298Q295 276 284 264T260 224T247 169V146H189V169Q189 205 204 238T230 284T262 318Q266 322 279
334T296 351L310 365Q321 376 324 380T335 394T345 410T353 425T359 443T362 461T364 482Q364 540 324 573T219 607Q171 607 127 580T69 512L18 534ZM184 28Q184 43 194 53T219 63Q235 63 245 53T255 28T245 3T219 -8Q204 -8 194 2T184 28Z" />
<glyph unicode="@" glyph-name="at" horiz-adv-x="796" d="M55 324Q55 472 150 570Q244 667 389 667T627 576T721 340Q721 256 693 203T601 149Q566 149 538 169T501 227Q462 159 379 159Q315 159 271 204T227 321Q227 394 270 438T379 482Q459 482 498 420V477H540V261Q540
225 557 206T601 186Q680 186 680 340Q680 471 598 548T389 626Q265 626 181 541T97 324Q97 193 181 108T389 23Q467 23 526 54L547 16Q477 -19 389 -19Q244 -19 150 79T55 324ZM268 321Q268 272 300 237T384 201Q435 201 466 236T498 321Q498 371 467 406T384
441T300 406T268 321Z" />
<glyph unicode="A" glyph-name="A" horiz-adv-x="642" d="M25 0L294 650H338L607 0H545L472 178H160L87 0H25ZM450 232L316 560L182 232H450Z" />
<glyph unicode="B" glyph-name="B" horiz-adv-x="603" d="M55 0V650H353Q430 650 481 604T532 480Q532 380 449 337Q498 318 527 277T556 178Q556 100 504 50T375 0H55ZM113 54H368Q425 54 461 91T497 182T461 272T368 309H113V54ZM113 359H346Q404 359 438 391T473
477T439 563T346 596H113V359Z" />
<glyph unicode="C" glyph-name="C" horiz-adv-x="687" d="M136 565Q226 658 370 658Q542 658 633 527L586 494Q511 600 370 600Q251 600 177 523T103 325T177 128T370 50Q439 50 495 79T586 157L633 123Q542 -8 370 -8Q226 -8 136 85T45 325T136 565Z" />
<glyph unicode="D" glyph-name="D" horiz-adv-x="650" d="M269 650Q413 650 501 560T590 325T502 90T269 0H55V650H269ZM269 57Q381 57 456 128T532 325T457 522T269 594H113V57H269Z" />
<glyph unicode="E" glyph-name="E" horiz-adv-x="540" d="M55 650H470V596H113V351H449V297H113V54H470V0H55V650Z" />
<glyph unicode="F" glyph-name="F" horiz-adv-x="537" d="M471 650V595H113V346H452V291H113V0H55V650H471Z" />
<glyph unicode="G" glyph-name="G" horiz-adv-x="747" d="M45 325Q45 471 135 564T370 658Q455 658 522 624T633 528L585 495Q510 600 370 600Q251 600 177 523T103 325T177 128T370 50Q474 50 541 112T619 279H368V333H682V310Q677 169 593 81T370 -8Q226 -8
136 85T45 325Z" />
<glyph unicode="H" glyph-name="H" horiz-adv-x="623" d="M113 650V353H490V650H548V0H490V296H113V0H55V650H113Z" />
<glyph unicode="I" glyph-name="I" horiz-adv-x="188" d="M113 0H55V650H113V0Z" />
<glyph unicode="J" glyph-name="J" horiz-adv-x="494" d="M35 136L92 155Q100 107 133 78T226 49Q291 49 326 86T361 180V650H419V174Q419 92 367 42T226 -8Q145 -8 96 31T35 136Z" />
<glyph unicode="K" glyph-name="K" horiz-adv-x="523" d="M55 0V650H113V347L405 650H475L164 325L488 0H417L113 304V0H55Z" />
<glyph unicode="L" glyph-name="L" horiz-adv-x="523" d="M113 54H468V0H55V650H113V54Z" />
<glyph unicode="M" glyph-name="M" horiz-adv-x="739" d="M118 650L359 170L601 650H664V0H606V542L380 82H339L113 542V0H55V650H118Z" />
<glyph unicode="N" glyph-name="N" horiz-adv-x="621" d="M56 650H112L488 98V650H546V0H489L114 551V0H56V650Z" />
<glyph unicode="O" glyph-name="O" horiz-adv-x="754" d="M136 565Q226 658 370 658T604 565T694 325T604 86Q514 -8 370 -8T136 85T45 325T136 565ZM103 325Q103 205 177 128Q251 50 370 50T562 127T636 325T563 523T370 600T177 523T103 325Z" />
<glyph unicode="P" glyph-name="P" horiz-adv-x="582" d="M345 650Q421 650 474 595T527 457T474 319T345 264H113V0H55V650H345ZM113 594V321H338Q395 321 432 361T470 457Q470 514 433 554T338 594H113Z" />
<glyph unicode="Q" glyph-name="Q" horiz-adv-x="754" d="M136 564Q227 658 370 658Q514 658 604 565T694 325Q694 228 652 151T534 32L619 -82H549L481 9Q428 -8 370 -8Q226 -8 136 85T45 325Q45 470 136 564ZM177 128Q251 50 370 50Q410 50 444 59L383 141H453L499
80Q564 113 600 177T636 325Q636 446 563 523T370 600T177 523T103 325T177 128Z" />
<glyph unicode="R" glyph-name="R" horiz-adv-x="600" d="M55 650H352Q428 650 481 595T534 457Q534 375 483 321T358 264L545 0H476L289 264H113V0H55V650ZM345 321Q402 321 439 360T476 457T439 554T345 594H113V321H345Z" />
<glyph unicode="S" glyph-name="S" horiz-adv-x="598" d="M35 136L83 166Q103 113 161 80T302 47Q480 47 480 179Q480 199 473 215T451 244T423 266T386 283T350 295T313 305T283 313Q279 314 255 320T219 329T183 340T145 356T112 377T82 405T65 440T57 485Q57
570 122 615T297 661Q384 661 449 626T533 535L484 509Q470 549 417 576T292 604Q210 604 166 574T121 487Q121 469 127 454T148 427T174 407T209 392T243 381T281 372T313 364Q316 363 339 357T375 348T411 335T451 317T485 294T516 264T535 227T543 181Q543 87
479 38T297 -11Q197 -11 128 29T35 136Z" />
<glyph unicode="T" glyph-name="T" horiz-adv-x="583" d="M528 650V596H311V0H253V596H35V650H528Z" />
<glyph unicode="U" glyph-name="U" horiz-adv-x="614" d="M113 650V229Q113 145 162 97T297 49T431 97T481 229V650H539V225Q539 122 474 57T297 -8T120 57T55 225V650H113Z" />
<glyph unicode="V" glyph-name="V" horiz-adv-x="638" d="M87 650L314 91L542 650H603L337 0H291L25 650H87Z" />
<glyph unicode="W" glyph-name="W" horiz-adv-x="944" d="M87 650L267 109L447 650H490L669 114L847 650H909L692 0H644L467 530L290 0H242L25 650H87Z" />
<glyph unicode="X" glyph-name="X" horiz-adv-x="594" d="M25 650H94L287 374L480 650H549L322 325L549 0H480L287 276L94 0H25L253 325L25 650Z" />
<glyph unicode="Y" glyph-name="Y" horiz-adv-x="576" d="M84 650L278 348L473 650H541L308 290V0H250V288L16 650H84Z" />
<glyph unicode="Z" glyph-name="Z" horiz-adv-x="538" d="M483 599L115 55L476 54V0H45V51L414 596H52V650H483V599Z" />
<glyph unicode="[" glyph-name="bracketleft" horiz-adv-x="267" d="M192 692V647H109V-3H192V-48H55V692H192Z" />
<glyph unicode="\" glyph-name="backslash" horiz-adv-x="294" d="M274 -48H217L5 691H62L274 -48Z" />
<glyph unicode="]" glyph-name="bracketright" horiz-adv-x="267" d="M138 -3V647H55V692H192V-48H55V-3H138Z" />
<glyph unicode="^" glyph-name="asciicircum" horiz-adv-x="365" d="M146 650H198L290 400H243L172 593L102 400H55L146 650Z" />
<glyph unicode="_" glyph-name="underscore" horiz-adv-x="467" d="M55 54H392V0H55V54Z" />
<glyph unicode="`" glyph-name="grave" horiz-adv-x="136" d="M73 650L116 557H67L20 650H73Z" />
<glyph unicode="a" glyph-name="a" horiz-adv-x="583" d="M43 230Q43 334 106 400T269 467Q394 467 453 364V460H508V0H453V96Q425 47 378 20T269 -8Q170 -8 107 59T43 230ZM146 97Q195 45 275 45T404 96T453 230T404 363T275 415T146 363T96 230T146 97Z" />
<glyph unicode="b" glyph-name="b" horiz-adv-x="583" d="M55 650H110V363Q168 467 294 467Q394 467 457 401T521 230Q521 127 457 60T294 -8Q232 -8 185 20T110 97V0H55V650ZM159 97Q208 45 288 45T417 96T467 230T418 363T288 415T159 364T110 230T159 97Z" />
<glyph unicode="c" glyph-name="c" horiz-adv-x="515" d="M108 401Q172 467 275 467Q397 467 462 375L422 345Q371 415 276 415Q196 415 147 364T97 230T146 97T276 45Q370 45 422 114L462 85Q398 -8 275 -8Q172 -8 108 59T43 230T108 401Z" />
<glyph unicode="d" glyph-name="d" horiz-adv-x="583" d="M43 230Q43 334 106 400T269 467Q394 467 453 364V650H508V0H453V96Q425 47 378 20T269 -8Q170 -8 107 59T43 230ZM146 97Q195 45 275 45T404 96T453 230T404 363T275 415T146 363T96 230T146 97Z" />
<glyph unicode="e" glyph-name="e" horiz-adv-x="551" d="M43 230Q43 334 105 401T269 468Q366 468 427 401T489 230V211H96Q102 134 151 87T275 40Q376 40 428 116L467 89Q436 43 387 17T275 -9Q172 -9 108 58T43 230ZM96 251H437Q431 326 386 373T269 421Q194
421 148 375T96 251Z" />
<glyph unicode="f" glyph-name="f" horiz-adv-x="331" d="M25 460H91V531Q91 587 122 618T210 650H286V604H223Q187 604 167 584T146 529V460H275V416H146V0H91V416H25V460Z" />
<glyph unicode="g" glyph-name="g" horiz-adv-x="583" d="M43 230Q43 333 106 400T269 467Q394 467 453 364V460H508V35Q508 -64 442 -126T268 -188Q146 -188 79 -108L117 -76Q174 -140 268 -140Q346 -140 399 -94T453 35V96Q425 47 378 20T269 -8Q170 -8 107
59T43 230ZM96 230Q96 148 146 97Q195 45 275 45T404 96T453 230T404 363T275 415T146 364T96 230Z" />
<glyph unicode="h" glyph-name="h" horiz-adv-x="524" d="M55 650H110V391Q160 467 264 467Q341 467 395 420T449 284V0H394V277Q394 343 354 381T252 419Q190 419 150 381T110 277V0H55V650Z" />
<glyph unicode="i" glyph-name="i" horiz-adv-x="203" d="M64 460H119V0H64V460ZM66 630Q77 640 91 640Q106 640 117 630T128 605Q128 589 117 579T91 568Q77 568 66 578T55 605Q55 620 66 630Z" />
<glyph unicode="j" glyph-name="j" horiz-adv-x="215" d="M-28 -184V-138H-2Q76 -138 76 -62V460H131V-71Q131 -122 101 -153T13 -184H-28ZM67 605Q67 620 78 630T103 640Q118 640 129 630T140 605Q140 589 129 579T104 568Q89 568 78 578T67 605Z" />
<glyph unicode="k" glyph-name="k" horiz-adv-x="453" d="M55 0V650H110V257L329 460H397L162 242L418 0H350L110 227V0H55Z" />
<glyph unicode="l" glyph-name="l" horiz-adv-x="185" d="M110 0H55V650H110V0Z" />
<glyph unicode="m" glyph-name="m" horiz-adv-x="813" d="M55 460H110V395Q156 467 252 467Q368 467 407 374Q450 467 566 467Q639 467 688 423T738 284V0H683V278Q683 347 646 382T553 417T461 382T424 278V0H369V278Q369 347 332 382T239 417T147 382T110 278V0H55V460Z"
/>
<glyph unicode="n" glyph-name="n" horiz-adv-x="524" d="M55 460H110V391Q160 467 264 467Q341 467 395 420T449 284V0H394V277Q394 343 354 381T252 419Q190 419 150 381T110 277V0H55V460Z" />
<glyph unicode="o" glyph-name="o" horiz-adv-x="571" d="M108 401Q173 468 276 468T443 401T508 230T444 59Q379 -9 276 -9T108 58T43 230T108 401ZM98 230Q98 150 148 98Q197 45 276 45T403 97T452 230T404 362T276 415T148 363T98 230Z" />
<glyph unicode="p" glyph-name="p" horiz-adv-x="583" d="M55 460H110V362Q137 411 184 439T294 467Q393 467 457 400T521 229Q521 125 458 59T294 -8Q168 -8 110 96V-184H55V460ZM159 96Q208 45 288 45T417 96T467 229T418 363T288 415T159 363T110 229T159 96Z" />
<glyph unicode="q" glyph-name="q" horiz-adv-x="583" d="M107 400Q170 467 269 467Q330 467 377 440T453 363V460H508V-184H453V95Q394 -8 269 -8Q169 -8 106 58T43 229Q43 332 107 400ZM146 97Q195 45 275 45T404 96T453 229T404 363T275 415T146 363T96 229Q96
148 146 97Z" />
<glyph unicode="r" glyph-name="r" horiz-adv-x="317" d="M55 460H110V375Q160 465 272 467V415Q205 413 158 374T110 260V0H55V460Z" />
<glyph unicode="s" glyph-name="s" horiz-adv-x="451" d="M33 94L73 117Q87 81 127 58T223 35Q345 35 345 125Q345 139 341 150T326 170T306 185T281 196T257 205T231 212T209 217Q207 218 190 222T165 228T140 237T112 248T89 264T68 284T55 310T49 342Q49 403
95 436T219 469Q285 469 331 444T392 379L351 358Q341 386 304 405T218 424Q163 424 133 403T103 344Q103 332 107 322T120 303T138 290T161 279T184 272T209 265T230 260Q232 260 246 257T266 251T286 245T309 236T331 226T353 213T371 197T386 177T395 154T399
127Q399 59 354 24T223 -11Q149 -11 100 17T33 94Z" />
<glyph unicode="t" glyph-name="t" horiz-adv-x="308" d="M25 416V460H91V600H146V460H261V416H146V109Q146 46 211 46H256V0H194Q146 0 119 27T91 102V416H25Z" />
<glyph unicode="u" glyph-name="u" horiz-adv-x="524" d="M55 460H110V182Q110 116 150 78T252 40Q314 40 354 78T394 182V460H449V0H394V68Q344 -8 240 -8Q163 -8 109 39T55 175V460Z" />
<glyph unicode="v" glyph-name="v" horiz-adv-x="469" d="M15 460H73L224 75L377 460H434L251 0H196L15 460Z" />
<glyph unicode="w" glyph-name="w" horiz-adv-x="726" d="M78 460L205 78L336 460H375L506 78L634 460H691L535 0H480L355 365L229 0H174L20 460H78Z" />
<glyph unicode="x" glyph-name="x" horiz-adv-x="485" d="M25 460H91L233 273L374 460H440L266 230L440 0H374L233 187L91 0H25L200 230L25 460Z" />
<glyph unicode="y" glyph-name="y" horiz-adv-x="469" d="M73 460L224 76L377 460H434L178 -184H123L196 0L15 460H73Z" />
<glyph unicode="z" glyph-name="z" horiz-adv-x="431" d="M376 460V416L104 48H371V0H35V44L308 413H40V460H376Z" />
<glyph unicode="{" glyph-name="braceleft" horiz-adv-x="318" d="M55 301V343H70Q85 343 95 355T106 391V611Q106 654 126 673T175 692H243V647H194Q161 647 161 604V391Q161 343 123 322Q161 301 161 253V40Q161 -3 194 -3H243V-48H175Q146 -48 126 -29T106
33V253Q106 276 96 288T70 301H55Z" />
<glyph unicode="|" glyph-name="bar" horiz-adv-x="184" d="M109 -48H55V692H109V-48Z" />
<glyph unicode="}" glyph-name="braceright" horiz-adv-x="318" d="M55 647V692H123Q153 692 172 673T192 611V391Q192 368 202 356T228 343H243V301H228Q213 301 203 289T192 253V33Q192 -9 173 -28T123 -48H55V-3H104Q137 -3 137 40V253Q137 301 175 322Q137
343 137 391V604Q137 647 104 647H55Z" />
<glyph unicode="~" glyph-name="asciitilde" horiz-adv-x="599" d="M90 361Q125 399 186 399Q196 399 206 397T224 393T241 386T255 379T268 369T279 360T290 350T300 341Q318 324 328 316T356 300T391 291Q429 291 453 315T478 385H524Q524 323 489 284T391 244Q383
244 375 245T360 247T346 252T333 258T321 264T311 271T301 279T292 287T284 295T276 302T267 311T257 320T247 328T236 336T226 342T214 347T201 350T187 352Q147 352 125 326T102 259H55Q55 322 90 361Z" />
</font>
</defs>
</svg>
