<svg width="22" height="33" viewBox="0 0 22 33" fill="none" xmlns="http://www.w3.org/2000/svg">
<g id="Group">
<path id="Vector" d="M18.9333 0.737549H3.02926C1.72638 0.737549 0.670593 1.7933 0.670593 3.09618V30.0073C0.670593 31.3102 1.72638 32.366 3.02926 32.366H18.9333C20.2362 32.366 21.292 31.3102 21.292 30.0073V3.09618C21.292 1.81576 20.2138 0.737549 18.9333 0.737549Z" fill="white"/>
<path id="Vector_2" d="M20.1464 4.53394H1.79376V26.7278H20.1464V4.53394Z" fill="#404040"/>
<g id="Group_2">
<g id="Group_3">
<path id="Vector_3" d="M14.7328 2.15234H7.20752C6.9155 2.15234 6.64594 2.39944 6.64594 2.71393C6.64594 3.02842 6.89303 3.27551 7.20752 3.27551H14.7328C15.0248 3.27551 15.2944 3.02842 15.2944 2.71393C15.2944 2.4219 15.0473 2.15234 14.7328 2.15234Z" fill="#6639A6"/>
</g>
</g>
<path id="Vector_4" d="M9.18451 29.4008C9.18451 28.4124 9.9932 27.5813 10.9816 27.5813C11.97 27.5813 12.8011 28.39 12.8011 29.4008C12.8011 30.3892 11.9924 31.1979 10.9816 31.1979C9.9932 31.2203 9.18451 30.4117 9.18451 29.4008Z" fill="#6639A6"/>
</g>
</svg>
