<?xml version="1.0" standalone="no"?> <!DOCTYPE svg PUBLIC "-//W3C//DTD SVG 1.0//EN" "http://www.w3.org/TR/2001/REC-SVG-20010904/DTD/svg10.dtd" > <svg xmlns="http://www.w3.org/2000/svg" width="100%" height="100%">
<defs >
<font horiz-adv-x="525" ><font-face
    font-family="Causten-SemiBold"
    units-per-em="1000"
    panose-1="0 0 7 0 0 0 0 0 0 0"
    ascent="772"
    descent="-228"
    alphabetic="0" />
<missing-glyph horiz-adv-x="475" d="M88 -200V750H390V-200H88ZM316 -5V102H159V-5H316ZM159 -27V-58H225L159 -103V-134H316V-103H219L286 -58H316V-27H159ZM316 159V266H221V213H254V235H285V190H190V266H159V159H316ZM159 564V465H316V497H254V564H159ZM316
589V620H254V655H316V686H160V655H221V620H159V589H316ZM159 373V342H254V408H316V439H159V408H221V373H159ZM159 320V287H316V382H285V320H159ZM190 71H285V26H190V71ZM190 532H221V497H190V532Z" />
<glyph unicode=" " glyph-name="space" horiz-adv-x="200" />
<glyph unicode="!" glyph-name="exclam" horiz-adv-x="213" d="M31 650H143L135 175H38L31 650ZM28 54Q28 80 45 97Q62 113 87 113T129 96T146 54T129 12T87 -5T45 11T28 54Z" />
<glyph unicode="&quot;" glyph-name="quotedbl" horiz-adv-x="348" d="M320 650L304 488H225L213 650H320ZM135 650L119 488H40L28 650H135Z" />
<glyph unicode="#" glyph-name="numbersign" horiz-adv-x="717" d="M28 239H138L174 403H66V499H195L227 647H330L298 499H482L514 647H617L585 499H670V403H564L528 239H632V143H507L475 -3H372L404 143H220L188 -3H85L117 143H28V239ZM241 239H425L461 403H277L241
239Z" />
<glyph unicode="$" glyph-name="dollar" horiz-adv-x="621" d="M141 214Q154 179 204 149T311 118Q422 118 422 189Q422 204 415 216T398 237T371 253T343 264T311 273T284 281Q283 281 266 286T242 293T217 302T189 314T163 328T137 346T115 367T96 393T85 424T80
460Q80 529 127 571T253 626V692H358V625Q426 615 480 582T553 505L464 449Q451 479 404 504T307 530Q259 530 233 513T207 467Q207 453 214 441T229 421T255 405T283 394T315 384T343 375Q345 374 365 368T397 358T430 345T465 327T496 304T524 274T541 238T548
194Q548 117 498 72T358 16V-49H253V18Q176 28 122 64T48 156L141 214Z" />
<glyph unicode="%" glyph-name="percent" horiz-adv-x="849" d="M520 263Q563 307 629 307T738 263T782 150Q782 83 739 39Q695 -6 629 -6T520 38T476 150Q476 219 520 263ZM91 611Q134 655 201 655Q267 655 310 611T353 498Q353 431 310 387T201 342Q134 342
91 386T48 498Q48 567 91 611ZM548 650H633L282 0H197L548 650ZM548 150Q548 114 571 90Q593 66 629 66T687 89T710 150T688 211T629 235T571 211T548 150ZM120 498Q120 461 143 438Q165 414 201 414T259 437T281 498T259 559T201 583T143 559T120 498Z" />
<glyph unicode="&amp;" glyph-name="ampersand" horiz-adv-x="646" d="M48 170Q48 225 78 270T182 364Q178 370 176 372Q138 419 121 451T103 521Q103 578 147 618T266 659Q339 659 383 617T428 519Q428 486 417 457T384 406T344 370T301 340L433 176Q461 227
461 290V301H545V289Q545 187 487 108L578 -4H474Q472 -2 431 49Q357 -9 269 -9Q165 -9 107 41T48 170ZM150 170Q150 130 181 102Q212 74 270 74T379 114L235 297Q198 270 178 244T154 203T150 170ZM198 480Q206 462 213 452T241 414Q242 413 244 410T249 405Q292
431 317 456T342 514T320 566Q298 585 266 585T212 565T190 514Q190 498 198 480Z" />
<glyph unicode="&apos;" glyph-name="quotesingle" horiz-adv-x="163" d="M28 650H135L116 488H37L28 650Z" />
<glyph unicode="(" glyph-name="parenleft" horiz-adv-x="274" d="M27 322Q27 556 116 692H226Q165 609 149 502T132 323Q132 251 149 143T227 -48H116Q27 87 27 322Z" />
<glyph unicode=")" glyph-name="parenright" horiz-adv-x="284" d="M122 178Q133 250 133 322Q133 394 117 501T39 692H149Q207 603 222 498T239 321Q238 251 223 146T149 -48H38Q99 34 122 178Z" />
<glyph unicode="*" glyph-name="asterisk" horiz-adv-x="385" d="M139 491L37 557L69 606L162 545V650H223V542L319 601L350 552L248 489L349 423L317 374L223 435V329H162V437L66 378L35 427L139 491Z" />
<glyph unicode="+" glyph-name="plus" horiz-adv-x="512" d="M202 366V520H291V366H445V276H291V123H202V276H48V366H202Z" />
<glyph unicode="," glyph-name="comma" horiz-adv-x="198" d="M63 74H171L106 -96H28L63 74Z" />
<glyph unicode="-" glyph-name="hyphen" horiz-adv-x="406" d="M48 333H338V231H48V333Z" />
<glyph unicode="." glyph-name="period" horiz-adv-x="173" d="M44 96Q60 112 86 112T128 96T145 54Q145 28 129 12T86 -5Q61 -5 45 11T28 54T44 96Z" />
<glyph unicode="/" glyph-name="slash" horiz-adv-x="358" d="M28 -47L240 692H345L133 -47H28Z" />
<glyph unicode="0" glyph-name="zero" horiz-adv-x="634" d="M38 325Q38 472 112 565T311 658T511 565T587 325T511 86Q435 -8 311 -8T113 85T38 325ZM149 325Q149 220 195 160Q240 100 311 100T427 160T472 325Q472 429 427 488T311 547T195 488T149 325Z" />
<glyph unicode="1" glyph-name="one" horiz-adv-x="336" d="M269 650V0H157V548H14V650H269Z" />
<glyph unicode="2" glyph-name="two" horiz-adv-x="521" d="M105 614Q166 659 255 659Q360 659 421 607T483 467Q483 432 468 394T436 330T385 268T337 219T290 178L204 102H483V0H33L32 92L160 204Q207 244 231 266T293 327T350 400T368 461Q368 503 339 528T255
553Q209 553 174 528T128 470L28 516Q44 569 105 614Z" />
<glyph unicode="3" glyph-name="three" horiz-adv-x="554" d="M98 165Q120 138 161 119T251 100Q312 100 351 131T390 215Q390 269 351 300T251 332Q195 332 137 313L138 394L329 548H73V650H485V555L322 415Q399 400 450 352T501 215Q501 106 428 49T251 -8Q181
-8 120 19T28 91L98 165Z" />
<glyph unicode="4" glyph-name="four" horiz-adv-x="585" d="M28 196L359 650H470V206H547V124H470V0H359V124H28V196ZM138 206H359V507L138 206Z" />
<glyph unicode="5" glyph-name="five" horiz-adv-x="549" d="M28 86L101 164Q157 100 245 100Q306 100 345 130T385 214Q385 267 344 297T241 328Q167 328 118 302L83 370L131 650H470V548H219L196 416Q222 419 243 419Q369 419 433 360T497 208Q497 107 429 50T252
-8Q111 -8 28 86Z" />
<glyph unicode="6" glyph-name="six" horiz-adv-x="552" d="M79 365L266 650H387L264 461H269Q368 461 434 394T500 227T434 60T269 -8T104 60T38 227Q38 305 79 365ZM143 227Q143 170 179 134Q214 97 269 97T359 133T395 227T360 321T269 358T179 321T143 227Z" />
<glyph unicode="7" glyph-name="seven" horiz-adv-x="474" d="M55 0L308 548H24V650H437V574L172 0H55Z" />
<glyph unicode="8" glyph-name="eight" horiz-adv-x="558" d="M38 185Q38 232 63 272T136 338Q93 363 71 401T49 483Q49 554 106 607T272 660T437 607T494 483Q494 388 408 338Q455 313 480 273T505 185Q505 98 445 44T272 -10T99 44T38 185ZM179 113Q212 82 272
82Q333 82 365 112T398 190Q398 236 365 267T272 298T179 267T145 190T179 113ZM151 476Q151 434 181 406T272 377Q331 377 361 405T392 476Q392 517 362 547Q331 576 272 576T182 547T151 476Z" />
<glyph unicode="9" glyph-name="nine" horiz-adv-x="552" d="M38 423Q38 523 103 590T268 658T433 590T500 423Q500 348 458 285L273 0H153L273 189H268Q169 189 104 256T38 423ZM143 423Q143 366 178 330T268 293Q332 293 369 341L371 344Q395 378 395 423Q395
480 360 516T268 553Q214 553 179 517T143 423Z" />
<glyph unicode=":" glyph-name="colon" horiz-adv-x="185" d="M44 394Q60 410 86 410T128 394T145 352Q145 326 129 310T86 293Q61 293 45 309T28 352T44 394ZM44 96Q60 112 86 112T128 96T145 54Q145 28 129 12T86 -5Q61 -5 45 11T28 54T44 96Z" />
<glyph unicode=";" glyph-name="semicolon" horiz-adv-x="213" d="M66 74H173L106 -96H28L66 74ZM52 351Q52 375 69 392T111 410T152 393T170 351T153 310Q135 292 111 292T70 309T52 351Z" />
<glyph unicode="&lt;" glyph-name="less" horiz-adv-x="445" d="M378 487V403L158 322L378 240V156L48 278V365L378 487Z" />
<glyph unicode="=" glyph-name="equal" horiz-adv-x="513" d="M445 261V177H48V261H445ZM48 466H445V383H48V466Z" />
<glyph unicode="&gt;" glyph-name="greater" horiz-adv-x="445" d="M268 322L48 403V487L378 365V278L48 156V240L268 322Z" />
<glyph unicode="?" glyph-name="question" horiz-adv-x="501" d="M14 523Q36 581 93 621T230 661Q324 661 383 615T443 483Q443 445 429 412T401 362T358 317Q356 315 346 304T333 290T322 277T311 264T303 251T295 237T290 224T286 209T285 194V175H173V194Q173
276 243 341L273 371Q277 375 286 384T298 398T307 411T316 426T322 441T327 457T328 475Q328 512 302 535T230 559Q191 559 156 535T110 478L14 523ZM188 93Q204 110 230 110T273 93T290 51T273 9T230 -8T188 9T171 51T188 93Z" />
<glyph unicode="@" glyph-name="at" horiz-adv-x="796" d="M48 323Q48 474 146 574Q244 674 389 674T631 579T729 339Q729 253 697 195T593 136Q552 136 520 156T475 215Q440 158 369 158Q313 158 269 201T225 320T268 438T369 481Q432 481 467 435V476H538V274Q538
195 593 195Q658 195 658 339Q658 466 580 534T389 603Q279 603 199 526T118 323Q118 198 198 121T389 43Q463 43 516 71L552 6Q486 -27 389 -27Q242 -27 145 73T48 323ZM320 256Q343 229 382 229T444 255T467 320T444 384T382 410T320 384T296 320T320 256Z" />
<glyph unicode="A" glyph-name="A" horiz-adv-x="659" d="M18 0L282 650H367L632 0H514L464 125H186L136 0H18ZM424 227L325 475L226 227H424Z" />
<glyph unicode="B" glyph-name="B" horiz-adv-x="604" d="M48 650H349Q428 650 482 602T536 470Q536 380 470 337Q560 291 560 186Q560 103 503 52T368 0H48V650ZM159 102H351Q394 102 419 128T445 195Q445 234 419 260T351 287H159V102ZM331 380Q372 380 396
403T421 464Q421 503 397 525T331 548H159V380H331Z" />
<glyph unicode="C" glyph-name="C" horiz-adv-x="672" d="M38 325Q38 470 129 564T365 658Q537 658 628 527L538 461Q511 499 466 523T365 547Q269 547 209 485T149 325T209 166T365 103Q419 103 464 128T538 192L628 123Q537 -8 365 -8Q221 -8 130 86T38 325Z" />
<glyph unicode="D" glyph-name="D" horiz-adv-x="654" d="M281 650Q424 650 512 560T601 325T513 90T281 0H48V650H281ZM281 108Q315 108 349 119T417 154T470 222T490 325Q490 383 470 427T417 495T350 530T281 542H159V108H281Z" />
<glyph unicode="E" glyph-name="E" horiz-adv-x="544" d="M48 650H481V548H159V376H460V274H159V102H481V0H48V650Z" />
<glyph unicode="F" glyph-name="F" horiz-adv-x="545" d="M484 650V545H159V362H465V257H159V0H48V650H484Z" />
<glyph unicode="G" glyph-name="G" horiz-adv-x="734" d="M130 564Q221 658 365 658Q450 658 517 624T628 528L537 462Q476 547 365 547Q269 547 209 485T149 325T209 166T365 103Q436 103 487 144T550 257H358V359H677V310Q672 169 588 81T365 -8Q221 -8 130
86T38 325T130 564Z" />
<glyph unicode="H" glyph-name="H" horiz-adv-x="640" d="M159 650V379H461V650H572V0H461V271H159V0H48V650H159Z" />
<glyph unicode="I" glyph-name="I" horiz-adv-x="226" d="M159 0H48V650H159V0Z" />
<glyph unicode="J" glyph-name="J" horiz-adv-x="515" d="M28 153L136 190Q150 100 236 100Q284 100 310 128T336 203V650H448V188Q448 98 390 45T236 -8Q147 -8 94 36T28 153Z" />
<glyph unicode="K" glyph-name="K" horiz-adv-x="557" d="M48 0V650H159V371L388 650H516L253 325L529 0H398L159 280V0H48Z" />
<glyph unicode="L" glyph-name="L" horiz-adv-x="527" d="M159 102H479V0H48V650H159V102Z" />
<glyph unicode="M" glyph-name="M" horiz-adv-x="754" d="M162 650L367 241L573 650H687V0H575V427L406 76H329L159 428V0H48V650H162Z" />
<glyph unicode="N" glyph-name="N" horiz-adv-x="634" d="M48 0V650H156L455 193V650H566V0H458L159 457V0H48Z" />
<glyph unicode="O" glyph-name="O" horiz-adv-x="742" d="M38 325Q38 470 129 564T365 658T599 565T690 325T600 86Q509 -8 365 -8T130 86T38 325ZM149 325Q149 228 209 166Q269 103 365 103T519 165T578 325T520 484T365 547T209 485T149 325Z" />
<glyph unicode="P" glyph-name="P" horiz-adv-x="589" d="M347 650Q425 650 483 594T541 441Q541 346 483 290T347 233H159V0H48V650H347ZM159 542V341H328Q371 341 400 369T430 441T401 513T330 542H159Z" />
<glyph unicode="Q" glyph-name="Q" horiz-adv-x="742" d="M131 564Q223 658 365 658Q510 658 600 565T690 325Q690 234 653 161T549 44L643 -82H509L447 1Q408 -8 365 -8Q221 -8 130 86T38 325T131 564ZM209 166Q269 103 365 103H371L299 199H433L481 134Q527
163 552 212T578 325Q578 422 520 484T365 547T209 485T149 325T209 166Z" />
<glyph unicode="R" glyph-name="R" horiz-adv-x="610" d="M355 650Q433 650 491 594T549 441Q549 363 509 310T406 240L562 0H433L282 233H159V0H48V650H355ZM159 341H338Q381 341 409 369T438 441T410 513T338 542H159V341Z" />
<glyph unicode="S" glyph-name="S" horiz-adv-x="606" d="M28 144L118 207Q135 169 191 135T315 100Q435 100 435 185Q435 203 424 218T392 243T353 260T308 275T272 285Q269 286 243 293T204 305T164 321T121 345T88 376T62 418T53 472Q53 567 123 614T303 662Q392
662 462 621T552 525L463 469Q448 500 399 525T290 550Q236 550 208 531T180 477Q180 462 188 450T208 429T238 412T271 400T307 390T338 381Q340 380 362 374T395 363T430 349T468 330T502 306T532 275T551 237T559 190Q559 92 491 40T303 -12Q199 -12 126 33T28
144Z" />
<glyph unicode="T" glyph-name="T" horiz-adv-x="588" d="M28 650H540V548H340V0H228V548H28V650Z" />
<glyph unicode="U" glyph-name="U" horiz-adv-x="614" d="M159 650V240Q159 171 197 136T297 100T397 135T435 240V650H547V228Q547 127 480 60T297 -8T115 59T48 228V650H159Z" />
<glyph unicode="V" glyph-name="V" horiz-adv-x="651" d="M136 650L320 182L505 650H623L365 0H276L18 650H136Z" />
<glyph unicode="W" glyph-name="W" horiz-adv-x="949" d="M136 650L284 203L431 650H513L658 217L803 650H921L704 0H609L469 420L330 0H235L18 650H136Z" />
<glyph unicode="X" glyph-name="X" horiz-adv-x="625" d="M18 650H147L303 420L458 650H587L367 325L587 0H458L303 230L147 0H18L238 325L18 650Z" />
<glyph unicode="Y" glyph-name="Y" horiz-adv-x="612" d="M139 650L298 395L457 650H585L354 280V0H243V277L11 650H139Z" />
<glyph unicode="Z" glyph-name="Z" horiz-adv-x="541" d="M494 556L173 103L487 102V0H38V94L355 547H44V650H494V556Z" />
<glyph unicode="[" glyph-name="bracketleft" horiz-adv-x="302" d="M235 692V612H150V32H235V-48H48V692H235Z" />
<glyph unicode="\" glyph-name="backslash" horiz-adv-x="350" d="M330 -48H225L13 691H118L330 -48Z" />
<glyph unicode="]" glyph-name="bracketright" horiz-adv-x="302" d="M133 32V612H48V692H235V-48H48V32H133Z" />
<glyph unicode="^" glyph-name="asciicircum" horiz-adv-x="415" d="M151 650H242L348 361H264L197 546L131 361H48L151 650Z" />
<glyph unicode="_" glyph-name="underscore" horiz-adv-x="460" d="M48 102H392V0H48V102Z" />
<glyph unicode="`" glyph-name="grave" horiz-adv-x="185" d="M114 650L165 542H75L20 650H114Z" />
<glyph unicode="a" glyph-name="a" horiz-adv-x="572" d="M31 230Q31 334 93 400T252 467Q346 467 397 400V460H504V0H397V59Q345 -8 252 -8Q156 -8 94 59T31 230ZM136 230Q136 170 172 132Q208 93 267 93T361 131T397 230T362 328T267 366T172 328T136 230Z" />
<glyph unicode="b" glyph-name="b" horiz-adv-x="572" d="M48 650H155V400Q206 467 300 467Q396 467 458 401T520 230Q520 127 458 60T300 -8Q207 -8 155 59V0H48V650ZM191 132Q226 93 285 93T380 131T416 230T380 328T285 366T191 328T155 230T191 132Z" />
<glyph unicode="c" glyph-name="c" horiz-adv-x="494" d="M97 402Q162 468 266 468Q388 468 453 375L376 315Q337 366 269 366Q210 366 173 328T136 230T173 132T269 93Q338 93 376 143L453 85Q388 -9 266 -9Q162 -9 97 58T31 230T97 402Z" />
<glyph unicode="d" glyph-name="d" horiz-adv-x="572" d="M31 230Q31 334 93 400T252 467Q346 467 397 400V650H504V0H397V59Q345 -8 252 -8Q156 -8 94 59T31 230ZM136 230Q136 170 172 132Q208 93 267 93T361 131T397 230T362 328T267 366T172 328T136 230Z" />
<glyph unicode="e" glyph-name="e" horiz-adv-x="532" d="M94 401Q157 468 260 468Q360 468 420 401T481 230V200H135Q143 146 178 115T265 83Q346 83 385 139L459 85Q429 41 378 16T265 -9Q161 -9 96 58T31 230T94 401ZM136 269H381Q372 320 341 351T260 383Q210
383 178 353T136 269Z" />
<glyph unicode="f" glyph-name="f" horiz-adv-x="345" d="M79 460V509Q79 577 114 613T218 650H307V566H251Q187 566 187 502V460H296V378H187V0H79V378H18V460H79Z" />
<glyph unicode="g" glyph-name="g" horiz-adv-x="572" d="M31 230Q31 333 93 400T251 467Q343 467 397 400V460H504V33Q504 -68 439 -131T260 -194Q136 -194 66 -111L137 -52Q184 -103 260 -103Q312 -103 354 -70T397 33V60Q344 -8 251 -8Q155 -8 93 59T31 230ZM172
132Q207 93 266 93T361 131T397 230T361 328T266 366T172 328T136 230T172 132Z" />
<glyph unicode="h" glyph-name="h" horiz-adv-x="538" d="M48 650H155V411Q203 467 290 467Q364 467 417 422T471 282V0H363V266Q363 323 332 349T258 376Q217 376 186 350T155 266V0H48V650Z" />
<glyph unicode="i" glyph-name="i" horiz-adv-x="236" d="M54 0V460H163L162 0H54ZM48 599Q48 626 66 642T108 658T150 642T169 599T151 555Q132 538 108 538T66 555T48 599Z" />
<glyph unicode="j" glyph-name="j" horiz-adv-x="247" d="M-1 -100Q31 -100 48 -87T66 -36V460H174V-58Q174 -114 140 -149T36 -184H-24V-100H-1ZM77 642Q95 658 119 658T161 642T179 599T161 555T119 538Q96 538 77 555T58 599T77 642Z" />
<glyph unicode="k" glyph-name="k" horiz-adv-x="496" d="M48 0V650H155V276L320 460H447L251 242L468 0H341L155 207V0H48Z" />
<glyph unicode="l" glyph-name="l" horiz-adv-x="223" d="M155 0H48V650H156L155 0Z" />
<glyph unicode="m" glyph-name="m" horiz-adv-x="819" d="M48 460H155V410Q203 467 282 467Q383 467 427 392Q477 467 580 467Q652 467 702 423T752 282V0H644V268Q644 324 615 348T548 373T482 349T453 268V0H346V268Q346 324 317 348T250 373T184 349T155 268V0H48V460Z"
/>
<glyph unicode="n" glyph-name="n" horiz-adv-x="538" d="M48 460H155V411Q203 467 290 467Q364 467 417 422T471 282V0H363V266Q363 323 332 349T258 376Q217 376 186 350T155 266V0H48V460Z" />
<glyph unicode="o" glyph-name="o" horiz-adv-x="555" d="M31 230Q31 334 97 401T268 469T438 402T504 230Q504 127 438 59Q372 -9 268 -9T98 59T31 230ZM138 230Q138 171 174 132Q210 93 268 93T361 132T397 230T362 327T268 366T174 328T138 230Z" />
<glyph unicode="p" glyph-name="p" horiz-adv-x="572" d="M48 460H155V400Q207 467 300 467Q396 467 458 400T520 229Q520 125 458 59T300 -8Q207 -8 155 59V-184H48V460ZM191 131Q226 93 285 93T380 131T416 229T380 327T285 366T191 328T155 229T191 131Z" />
<glyph unicode="q" glyph-name="q" horiz-adv-x="572" d="M31 229Q31 332 93 399T252 467Q345 467 397 400V460H504V-184H397V59Q345 -8 252 -8Q156 -8 94 58T31 229ZM136 229Q136 169 172 131Q208 93 267 93T361 131T397 229T362 327T267 366T172 328T136 229Z" />
<glyph unicode="r" glyph-name="r" horiz-adv-x="355" d="M48 460H155V377Q208 465 317 467V366Q292 366 269 361T217 342T172 298T155 223V0H48V460Z" />
<glyph unicode="s" glyph-name="s" horiz-adv-x="451" d="M96 145Q106 119 143 96T225 73Q305 73 305 128Q305 141 299 150T278 167T255 178T225 188T200 195L183 200Q166 205 159 207T134 217T106 231T82 249T60 271T47 299T41 333Q41 400 92 435T222 470Q292
470 340 443T408 375L337 330Q326 351 291 369T218 387Q183 387 164 374T145 338Q145 326 151 317T171 300T194 289T223 280T247 273Q248 273 260 269T279 263T299 256T321 247T342 235T364 221T381 204T396 184T406 160T410 132Q410 62 361 25T224 -13Q146 -13
93 18T21 96L96 145Z" />
<glyph unicode="t" glyph-name="t" horiz-adv-x="333" d="M18 460H79V601H187V460H289V378H187V142Q187 107 204 96T249 84H284V0H206Q79 0 79 125V378H18V460Z" />
<glyph unicode="u" glyph-name="u" horiz-adv-x="538" d="M48 460H155V194Q155 137 187 111T260 84T332 110T363 194V460H471V0H363V48Q315 -8 228 -8Q154 -8 101 37T48 178V460Z" />
<glyph unicode="v" glyph-name="v" horiz-adv-x="505" d="M9 460H120L242 146L366 460H478L295 0H190L9 460Z" />
<glyph unicode="w" glyph-name="w" horiz-adv-x="749" d="M121 460L219 152L326 460H406L512 152L610 460H722L570 0H465L365 294L264 0H159L10 460H121Z" />
<glyph unicode="x" glyph-name="x" horiz-adv-x="514" d="M18 460H142L247 315L352 460H476L309 230L476 0H352L247 145L142 0H18L185 230L18 460Z" />
<glyph unicode="y" glyph-name="y" horiz-adv-x="505" d="M120 460L242 149L366 460H478L222 -184H117L190 0L9 460H120Z" />
<glyph unicode="z" glyph-name="z" horiz-adv-x="426" d="M378 460V379L163 89H376V0H28V81L243 371H30V460H378Z" />
<glyph unicode="{" glyph-name="braceleft" horiz-adv-x="353" d="M63 357Q78 357 88 370T99 407V586Q99 692 189 692H286V612H237Q204 612 204 569V407Q204 345 153 322Q204 299 204 237V75Q204 32 237 32H286V-48H189Q99 -48 99 58V237Q99 261 89 274T63 287H48V357H63Z"
/>
<glyph unicode="|" glyph-name="bar" horiz-adv-x="217" d="M150 -48H48V692H150V-48Z" />
<glyph unicode="}" glyph-name="braceright" horiz-adv-x="353" d="M48 692H145Q235 692 235 586V407Q235 383 245 370T271 357H286V287H271Q256 287 246 274T235 237V58Q235 -48 145 -48H48V32H97Q130 32 130 75V237Q130 299 181 322Q130 345 130 407V569Q130
612 97 612H48V692Z" />
<glyph unicode="~" glyph-name="asciitilde" horiz-adv-x="589" d="M85 365Q122 410 190 410Q216 410 240 400T273 382T301 357Q344 317 374 317Q400 317 419 334T438 394H521Q521 323 483 278T374 233Q348 233 325 241T290 258T262 283Q259 286 253 291T245 299T237
306T228 313T221 317T212 321T203 323T192 324Q163 324 147 302T131 249H48Q48 320 85 365Z" />
</font>
</defs>
</svg>
